<?xml version="1.0" standalone="no"?>
<!DOCTYPE svg PUBLIC "-//W3C//DTD SVG 20010904//EN"
 "http://www.w3.org/TR/2001/REC-SVG-20010904/DTD/svg10.dtd">
<svg version="1.0" xmlns="http://www.w3.org/2000/svg"
 width="461.000000pt" height="461.000000pt" viewBox="0 0 461.000000 461.000000"
 preserveAspectRatio="xMidYMid meet">
<metadata>
Created by potrace 1.14, written by Peter Selinger 2001-2017
</metadata>
<g transform="translate(0.000000,461.000000) scale(0.100000,-0.100000)"
fill="#000000" stroke="none">
<path d="M2730 3884 c-151 -41 -259 -160 -290 -322 -16 -81 -1 -183 40 -267
31 -64 49 -83 350 -366 273 -257 263 -249 320 -249 56 0 18 -31 408 334 217
202 252 244 283 333 29 84 26 219 -5 296 -34 81 -71 131 -128 173 -79 59 -140
78 -243 78 -115 0 -183 -25 -260 -96 l-55 -50 -44 40 c-105 97 -242 132 -376
96z"/>
<path d="M1545 3289 c-233 -31 -414 -118 -558 -267 -85 -89 -119 -159 -119
-245 1 -103 37 -164 124 -213 47 -25 63 -29 138 -29 109 0 166 26 270 120 97
87 137 112 213 132 81 20 191 12 262 -21 121 -55 195 -167 203 -307 l5 -79
-273 0 c-300 0 -423 -12 -564 -57 -267 -84 -448 -268 -502 -510 -25 -112 -16
-275 20 -368 79 -205 260 -362 486 -422 91 -24 321 -24 410 0 115 30 260 109
335 182 37 36 75 65 85 65 11 0 23 -16 34 -45 22 -57 93 -130 154 -158 73 -33
200 -30 275 7 31 15 74 47 96 72 73 83 71 64 71 750 0 670 -1 691 -59 840
-103 267 -358 468 -676 535 -106 23 -329 32 -430 18z m535 -1463 l0 -134 -56
-51 c-114 -101 -252 -155 -394 -156 -84 0 -101 3 -153 28 -78 39 -110 87 -115
172 -7 102 30 174 116 227 65 40 114 47 365 47 l237 1 0 -134z"/>
</g>
</svg>
